<svg width="800" height="800" viewBox="0 0 800 800" fill="none" xmlns="http://www.w3.org/2000/svg">
<g clip-path="url(#clip0_79_2)">
<path d="M461 633.333C456.02 633.35 451.1 632.251 446.6 630.117C442.101 627.983 438.137 624.867 435 621L274 421C269.097 415.036 266.417 407.554 266.417 399.833C266.417 392.113 269.097 384.631 274 378.667L440.667 178.667C446.325 171.859 454.455 167.579 463.269 166.766C472.083 165.953 480.859 168.675 487.667 174.333C494.474 179.991 498.755 188.122 499.567 196.936C500.38 205.75 497.658 214.526 492 221.333L343 400L487 578.667C491.076 583.56 493.665 589.518 494.461 595.836C495.257 602.154 494.227 608.568 491.491 614.319C488.756 620.07 484.431 624.917 479.027 628.287C473.624 631.656 467.368 633.408 461 633.333Z" fill="#727272"/>
</g>
<defs>
<clipPath id="clip0_79_2">
<rect width="800" height="800" fill="white"/>
</clipPath>
</defs>
</svg>
