<svg width="40" height="40" viewBox="0 0 40 40" fill="none" xmlns="http://www.w3.org/2000/svg">
    <path d="M39.29 11.0127L28.8721 0.702667C28.4174 0.252667 27.8008 0 27.1574 0H12.4242C11.7809 0 11.1642 0.252667 10.7096 0.702667L0.296335 11.0087C-0.0749954 11.376 -0.0976618 11.958 0.230335 12.3507C0.251002 12.376 0.273002 12.4 0.296335 12.4233L6.34828 18.4127C7.15828 19.3193 7.15761 20.686 6.34562 21.5913L0.296335 27.5773C0.273002 27.6 0.251669 27.6233 0.231669 27.648C-0.0976618 28.0413 -0.075662 28.6247 0.296335 28.992L10.7096 39.2973C11.1642 39.7473 11.7809 40 12.4242 40H27.1574C27.8008 40 28.4174 39.7473 28.8721 39.2973L39.29 28.9873C39.7447 28.5373 40 27.9267 40 27.2907V12.7093C40 12.0727 39.7447 11.4627 39.29 11.0127ZM28.1621 37.1027C28.1621 38.172 26.8561 38.7073 26.0921 37.9513L11.4202 23.4307L9.66826 21.6967C8.72093 20.7593 8.72093 19.24 9.66826 18.302L26.0921 2.04867C26.8561 1.29267 28.1621 1.828 28.1621 2.89733V37.1027V37.1027Z" fill="#2C44DA"/>
</svg>
