<svg width="160" height="90" viewBox="0 0 160 90" fill="none" xmlns="http://www.w3.org/2000/svg">
<path d="M90.0887 59.9999H70.3128C67.5928 59.9999 65.4008 57.7919 65.4008 55.0879V35.3119C65.4008 32.5919 67.6088 30.3999 70.3128 30.3999H90.0887C92.8087 30.3999 95.0008 32.6079 95.0008 35.3119V55.0879C95.0008 57.7919 92.7927 59.9999 90.0887 59.9999Z" stroke="#727272" stroke-width="2" stroke-linecap="round" stroke-linejoin="round"/>
<path d="M65.4008 53.9198L71.0488 48.2718C72.0088 47.3118 73.5767 47.3118 74.5367 48.2718L75.9767 49.7118C76.9367 50.6718 78.5048 50.6718 79.4648 49.7118L85.8488 43.3277C86.8088 42.3677 88.3767 42.3677 89.3367 43.3277L94.9847 48.9757" stroke="#727272" stroke-width="2" stroke-linecap="round" stroke-linejoin="round"/>
<path d="M74.0421 35.4557C72.6981 35.4557 71.6101 36.5437 71.6101 37.8877C71.6101 39.2317 72.6981 40.3198 74.0421 40.3198C75.3861 40.3198 76.4741 39.2317 76.4741 37.8877C76.4741 36.5437 75.3701 35.4557 74.0421 35.4557Z" fill="#727272"/>
</svg>
