<svg width="76" height="76" viewBox="0 0 76 76" fill="none" xmlns="http://www.w3.org/2000/svg">
<g clip-path="url(#clip0_77_2)">
<mask id="mask0_77_2" style="mask-type:luminance" maskUnits="userSpaceOnUse" x="0" y="0" width="76" height="76">
<path d="M76 0H0V76H76V0Z" fill="white"/>
</mask>
<g mask="url(#mask0_77_2)">
<path d="M38 75C58.4345 75 75 58.4345 75 38C75 17.5655 58.4345 1 38 1C17.5655 1 1 17.5655 1 38C1 58.4345 17.5655 75 38 75Z" stroke="#727272" stroke-width="2"/>
<path d="M47.7296 23.1639C47.1137 22.5292 46.1184 22.5292 45.5025 23.1639L24.1375 45.1967C23.5187 45.8354 23.5187 46.873 24.1374 47.511L47.7296 23.1639ZM47.7296 23.1639C48.3488 23.8023 48.3488 24.8396 47.7295 25.4782ZM47.7296 23.1639L47.7295 25.4782ZM47.7295 25.4782L26.3648 47.5111C26.056 47.8293 25.6533 47.9875 25.2511 47.9875C24.849 47.9875 24.4464 47.8293 24.1374 47.511L47.7295 25.4782ZM45.8694 43.5498L45.7628 43.687L45.8838 43.8118L54.4399 52.6354C54.92 53.1305 54.9201 53.9357 54.4399 54.4314C54.2004 54.6781 53.8888 54.8 53.5775 54.8C53.2663 54.8 52.9549 54.6781 52.7154 54.4313L44.1596 45.6081L44.0309 45.4754L43.8885 45.5932C41.7083 47.396 38.9438 48.476 35.9339 48.476C34.4205 48.476 32.9695 48.2026 31.6236 47.702C30.8229 47.4045 30.5931 46.3188 31.2103 45.6827L31.2713 45.6198C31.598 45.2827 32.0835 45.1811 32.5257 45.3416C33.9882 45.8739 35.5995 46.0758 37.2779 45.8532C41.8699 45.2436 45.5466 41.4474 46.136 36.7223C46.3517 34.9944 46.1563 33.3351 45.6409 31.8288C45.4826 31.3663 45.584 30.8591 45.9123 30.5206L45.9733 30.4577C46.5808 29.8308 47.6244 30.0534 47.9157 30.8868C48.4016 32.2765 48.667 33.7747 48.667 35.3378C48.667 38.4465 47.6182 41.3004 45.8694 43.5498ZM23.8846 39.5927C23.3864 38.093 23.1432 36.471 23.2112 34.7803C23.4835 28.0111 28.8431 22.4912 35.3936 22.2116C37.0649 22.1399 38.6667 22.4022 40.1442 22.937C41.0017 23.2473 41.2657 24.3659 40.6223 25.0294L40.6106 25.0414C40.275 25.3875 39.7766 25.4913 39.3224 25.3271C37.8649 24.8006 36.2599 24.6013 34.5894 24.8225C29.9971 25.4317 26.3204 29.2284 25.7312 33.9535C25.5171 35.6732 25.7095 37.3255 26.2198 38.8264C26.3814 39.3019 26.2778 39.8223 25.9412 40.1692L25.9397 40.1708L25.9295 40.1815C25.9297 40.1813 25.9292 40.1818 25.9295 40.1815C25.2959 40.8339 24.2199 40.5782 23.9161 39.6854L23.8846 39.5927Z" fill="#727272"/>
<path d="M47.7296 23.1639C47.1137 22.5292 46.1184 22.5292 45.5025 23.1639L24.1375 45.1967C23.5187 45.8354 23.5187 46.873 24.1374 47.511M47.7296 23.1639L24.1374 47.511M47.7296 23.1639C48.3488 23.8023 48.3488 24.8396 47.7295 25.4782M47.7296 23.1639L47.7295 25.4782M24.1374 47.511C24.4464 47.8293 24.849 47.9875 25.2511 47.9875C25.6533 47.9875 26.056 47.8293 26.3648 47.5111L47.7295 25.4782M24.1374 47.511L47.7295 25.4782M40.6223 25.0294C41.2657 24.3659 41.0017 23.2473 40.1442 22.937C38.6667 22.4022 37.0649 22.1399 35.3936 22.2116C28.8431 22.4912 23.4835 28.0111 23.2112 34.7803C23.1432 36.471 23.3864 38.093 23.8846 39.5927L23.9161 39.6854C24.2199 40.5782 25.2959 40.8339 25.9295 40.1815M40.6223 25.0294L40.7659 25.1686M40.6223 25.0294L40.6106 25.0414C40.275 25.3875 39.7766 25.4913 39.3224 25.3271C37.8649 24.8006 36.2599 24.6013 34.5894 24.8225C29.9971 25.4317 26.3204 29.2284 25.7312 33.9535C25.5171 35.6732 25.7095 37.3255 26.2198 38.8264C26.3814 39.3019 26.2778 39.8223 25.9412 40.1692L25.9397 40.1708L25.9295 40.1815M25.9295 40.1815C25.9292 40.1818 25.9297 40.1813 25.9295 40.1815ZM45.8694 43.5498L45.7628 43.687L45.8838 43.8118L54.4399 52.6354C54.92 53.1305 54.9201 53.9357 54.4399 54.4314C54.2004 54.6781 53.8888 54.8 53.5775 54.8C53.2663 54.8 52.9549 54.6781 52.7154 54.4313L44.1596 45.6081L44.0309 45.4754L43.8885 45.5932C41.7083 47.396 38.9438 48.476 35.9339 48.476C34.4205 48.476 32.9695 48.2026 31.6236 47.702C30.8229 47.4045 30.5931 46.3188 31.2103 45.6827L31.2713 45.6198C31.598 45.2827 32.0835 45.1811 32.5257 45.3416C33.9882 45.8739 35.5995 46.0758 37.2779 45.8532C41.8699 45.2436 45.5466 41.4474 46.136 36.7223C46.3517 34.9944 46.1563 33.3351 45.6409 31.8288C45.4826 31.3663 45.584 30.8591 45.9123 30.5206L45.9733 30.4577C46.5808 29.8308 47.6244 30.0534 47.9157 30.8868C48.4016 32.2765 48.667 33.7747 48.667 35.3378C48.667 38.4465 47.6182 41.3004 45.8694 43.5498Z" stroke="white" stroke-width="0.4"/>
</g>
</g>
<defs>
<clipPath id="clip0_77_2">
<rect width="76" height="76" fill="white"/>
</clipPath>
</defs>
</svg>
