<svg width="129" height="40" viewBox="0 0 129 40" fill="none" xmlns="http://www.w3.org/2000/svg">
<g clip-path="url(#clip0_1_12)">
<path d="M52.7607 2.5447H56.1348C59.0439 2.5447 60.5324 4.23803 60.5324 7.2487C60.5324 10.2594 59.0445 11.9527 56.1348 11.9527H52.7607V2.5447V2.5447ZM55.9627 10.4074C57.9953 10.4074 58.7524 9.43936 58.7524 7.2487C58.7524 5.05803 57.9953 4.09003 55.9627 4.09003H54.5012V10.4067H55.9627V10.4074ZM62.751 2.04736C63.2555 2.04736 63.7073 2.46403 63.7073 3.01536C63.7073 3.5667 63.2555 3.98336 62.751 3.98336C62.2465 3.98336 61.7809 3.5667 61.7809 3.01536C61.7809 2.46403 62.2326 2.04736 62.751 2.04736V2.04736ZM61.9009 4.96403H63.6011V11.9527H61.9009V4.96336V4.96403ZM64.9828 12.4234H66.4838C66.5234 13.136 67.3339 13.4314 68.091 13.4314C69.1007 13.4314 69.9245 12.934 69.9245 11.738V10.7434H69.8981C69.5129 11.348 68.7288 11.778 67.7725 11.778C66.3242 11.778 64.8232 10.824 64.8232 8.3107C64.8232 5.79736 66.3512 4.82936 67.7725 4.82936C68.7288 4.82936 69.5129 5.25936 69.8981 5.86403H69.9245V4.96336H71.6247V11.7374C71.6247 14.2507 69.5525 14.7614 68.1306 14.7614C66.8551 14.7614 64.9953 14.358 64.9821 12.4227L64.9828 12.4234ZM68.2111 10.3534C69.1542 10.3534 69.9911 9.6947 69.9911 8.3107C69.9911 6.9267 69.1542 6.26803 68.2111 6.26803C67.268 6.26803 66.4179 6.91336 66.4179 8.3107C66.4179 9.70803 67.268 10.3534 68.2111 10.3534ZM74.0293 2.04736C74.5338 2.04736 74.9855 2.46403 74.9855 3.01536C74.9855 3.5667 74.5338 3.98336 74.0293 3.98336C73.5247 3.98336 73.0591 3.5667 73.0591 3.01536C73.0591 2.46403 73.5109 2.04736 74.0293 2.04736V2.04736ZM73.1791 4.96403H74.8794V11.9527H73.1791V4.96336V4.96403ZM77.1243 9.9907V6.30803H75.9689V4.96403H77.1243V3.1767H78.8245V4.96403H80.1798V6.30803H78.8245V9.72203C78.8245 10.3267 79.0105 10.6627 79.7281 10.6627C79.8877 10.6627 80.007 10.6627 80.2596 10.636V11.926C79.9675 12.0067 79.6351 12.0467 79.2763 12.0467C77.9744 12.0467 77.1243 11.4687 77.1243 9.99003V9.9907ZM81.0168 10.1254C81.0168 8.67403 82.1458 8.25736 83.4081 8.0827L84.6968 7.90803C85.3741 7.81403 85.5733 7.6927 85.5733 7.33003V7.18203C85.5733 6.33536 85.0688 6.08003 84.3249 6.08003C83.5809 6.08003 82.9828 6.33536 82.9828 7.10136V7.24936H81.3887V6.94003C81.3887 5.5827 82.3054 4.83003 84.3644 4.83003C86.4234 4.83003 87.2471 5.56936 87.2471 7.1147V11.9534H85.6129V10.7034H85.5463C85.3999 11.0934 84.776 12.088 83.2347 12.088C82.0654 12.088 81.0161 11.5234 81.0161 10.126L81.0168 10.1254ZM83.7933 10.8374C84.8828 10.8374 85.5733 10.098 85.5733 9.53336V8.64603C85.4803 8.80736 85.1479 8.88803 84.7628 8.94203L83.6601 9.1167C82.9425 9.22403 82.717 9.56003 82.717 9.9767C82.717 10.514 83.0757 10.8367 83.7933 10.8367V10.8374ZM88.8016 2.5447H90.5018V11.9527H88.8016V2.5447V2.5447ZM52.7607 19.9934C52.7607 16.9287 54.461 15.168 57.0917 15.168C59.0848 15.168 60.6788 16.1894 60.8912 18.4207H59.191C58.912 17.2247 58.0883 16.7 57.0522 16.7C55.3651 16.7 54.5414 18.044 54.5414 19.9927C54.5414 21.9414 55.3388 23.2994 57.0522 23.2994C58.0883 23.2994 58.912 22.7754 59.191 21.5654H60.8912C60.6788 23.81 59.0848 24.8314 57.0785 24.8314C54.4616 24.8314 52.7607 23.0707 52.7607 19.9927V19.9934ZM61.7413 21.2027C61.7413 18.676 63.4283 17.574 65.1687 17.574C66.9092 17.574 68.5962 18.676 68.5962 21.2027C68.5962 23.7294 66.896 24.8314 65.1687 24.8314C63.4415 24.8314 61.7413 23.7294 61.7413 21.2027V21.2027ZM65.1687 23.3934C66.1653 23.3934 66.989 22.7214 66.989 21.2027C66.989 19.684 66.1653 19.012 65.1687 19.012C64.1722 19.012 63.3353 19.684 63.3353 21.2027C63.3353 22.7214 64.159 23.3934 65.1687 23.3934ZM73.1264 18.998C72.1965 18.998 71.5192 19.5627 71.5192 20.7047V24.6967H69.8189V17.708H71.5192V19.146H71.5726C71.7051 18.5414 72.3699 17.5734 73.8307 17.5734C75.186 17.5734 76.2353 18.4067 76.2353 20.302V24.6967H74.5351V20.7047C74.5351 19.562 74.0438 18.998 73.1271 18.998H73.1264ZM78.3603 22.7347V19.052H77.2048V17.708H78.3603V15.9207H80.0605V17.708H81.4158V19.052H80.0605V22.466C80.0605 23.0707 80.2464 23.4067 80.964 23.4067C81.1236 23.4067 81.243 23.4067 81.4956 23.38V24.67C81.2034 24.7507 80.871 24.7907 80.5122 24.7907C79.2104 24.7907 78.3603 24.2127 78.3603 22.734V22.7347ZM82.2527 21.1894C82.2527 18.6087 83.8335 17.574 85.6406 17.574C87.4476 17.574 88.8821 18.5687 88.8821 21.122C88.8821 21.364 88.8689 21.4987 88.8425 21.646H83.8606C83.9667 22.95 84.6177 23.514 85.7072 23.514C86.5705 23.514 87.0757 23.178 87.2748 22.506H88.7891C88.4171 24.092 87.2082 24.8314 85.667 24.8314C83.8737 24.8314 82.2527 23.7967 82.2527 21.1887V21.1894ZM87.2742 20.598C87.2346 19.6167 86.7294 18.8914 85.6135 18.8914C84.617 18.8914 83.9925 19.456 83.8731 20.598H87.2742V20.598ZM93.4116 18.9987C92.4817 18.9987 91.8043 19.5634 91.8043 20.7054V24.6974H90.1041V17.7087H91.8043V19.1467H91.8578C91.9903 18.542 92.6551 17.574 94.1159 17.574C95.4712 17.574 96.5205 18.4074 96.5205 20.3027V24.6974H94.8203V20.7054C94.8203 19.5627 94.329 18.9987 93.4122 18.9987H93.4116ZM98.6454 22.7354V19.0527H97.49V17.7087H98.6454V15.9214H100.346V17.7087H101.701V19.0527H100.346V22.4667C100.346 23.0714 100.532 23.4074 101.249 23.4074C101.409 23.4074 101.528 23.4074 101.781 23.3807V24.6707C101.489 24.7514 101.156 24.7914 100.797 24.7914C99.4955 24.7914 98.6454 24.2134 98.6454 22.7347V22.7354ZM52.7607 28.038H54.9398L57.6497 35.0674L60.3596 28.038H62.5386V37.446H60.7982V31.1294H60.7316L58.3138 37.446H56.9856L54.5546 31.1294H54.5012V37.446H52.7607V28.038V28.038ZM63.76 35.6187C63.76 34.1674 64.8891 33.7507 66.1514 33.5754L67.4401 33.4007C68.1174 33.3067 68.3166 33.1854 68.3166 32.8227V32.6747C68.3166 31.828 67.8121 31.5727 67.0681 31.5727C66.3242 31.5727 65.726 31.828 65.726 32.594V32.742H64.132V32.4327C64.132 31.0754 65.0487 30.3227 67.1077 30.3227C69.1667 30.3227 69.9904 31.062 69.9904 32.6074V37.446H68.3562V36.196H68.2895C68.1431 36.586 67.5192 37.5807 65.978 37.5807C64.8087 37.5807 63.7594 37.016 63.7594 35.6187H63.76ZM66.5366 36.3307C67.6261 36.3307 68.3166 35.5914 68.3166 35.0267V34.1394C68.2236 34.3007 67.8912 34.3814 67.5061 34.4354L66.4033 34.61C65.6858 34.7174 65.4603 35.0534 65.4603 35.47C65.4603 36.0074 65.819 36.33 66.5366 36.33V36.3307ZM71.6108 30.4574H73.311V32.124H73.3506C73.5762 31.1834 74.2271 30.3767 75.3964 30.3767C75.556 30.3767 75.742 30.39 75.928 30.444V31.8954C75.7288 31.8687 75.5692 31.8547 75.3964 31.8547C74.2541 31.8547 73.3104 32.5534 73.3104 34.1934V37.446H71.6102V30.4574H71.6108ZM77.0175 28.038H78.7177V33.5887L81.5338 30.4574H83.42L80.5901 33.4547L83.792 37.4467H81.9058L79.5546 34.5434L78.7177 35.4307V37.4467H77.0175V28.0387V28.038ZM83.9522 33.938C83.9522 31.3574 85.5331 30.3227 87.3401 30.3227C89.1472 30.3227 90.5816 31.3174 90.5816 33.8707C90.5816 34.1127 90.5684 34.2474 90.542 34.3947H85.5601C85.6663 35.6987 86.3172 36.2627 87.4067 36.2627C88.27 36.2627 88.7752 35.9267 88.9744 35.2547H90.4886C90.1167 36.8407 88.9078 37.58 87.3665 37.58C85.5733 37.58 83.9522 36.5454 83.9522 33.9374V33.938ZM88.9737 33.3467C88.9342 32.3654 88.429 31.64 87.3131 31.64C86.3166 31.64 85.692 32.2047 85.5726 33.3467H88.9737V33.3467ZM92.268 35.4834V31.8007H91.1125V30.4567H92.268V28.6694H93.9682V30.4567H95.3235V31.8007H93.9682V35.2147C93.9682 35.8194 94.1542 36.1554 94.8717 36.1554C95.0313 36.1554 95.1507 36.1554 95.4033 36.1287V37.4187C95.1111 37.4994 94.7787 37.5394 94.42 37.5394C93.1181 37.5394 92.268 36.9614 92.268 35.4827V35.4834ZM96.5587 30.4567H98.259V31.4647C98.5914 30.806 99.388 30.322 100.398 30.322C101.886 30.322 103.44 31.3974 103.44 33.9507C103.44 36.504 101.886 37.5794 100.398 37.5794C99.388 37.5794 98.5914 37.0954 98.259 36.4367V39.9987H96.5587V30.456V30.4567ZM99.9994 36.142C100.956 36.142 101.846 35.4567 101.846 33.9514C101.846 32.446 100.956 31.7607 99.9994 31.7607C99.0431 31.7607 98.1792 32.446 98.1792 33.9514C98.1792 35.4567 99.0695 36.142 99.9994 36.142ZM104.675 28.0374H106.376V37.4454H104.675V28.0374V28.0374ZM107.598 35.618C107.598 34.1667 108.727 33.75 109.989 33.5747L111.278 33.4C111.955 33.306 112.154 33.1847 112.154 32.822V32.674C112.154 31.8274 111.65 31.572 110.906 31.572C110.162 31.572 109.564 31.8274 109.564 32.5934V32.7414H107.97V32.432C107.97 31.0747 108.886 30.322 110.945 30.322C113.004 30.322 113.828 31.0614 113.828 32.6067V37.4454H112.194V36.1954H112.127C111.981 36.5854 111.357 37.58 109.816 37.58C108.646 37.58 107.597 37.0154 107.597 35.618H107.598ZM110.374 36.33C111.464 36.33 112.154 35.5907 112.154 35.026V34.1387C112.061 34.3 111.729 34.3807 111.344 34.4347L110.241 34.6094C109.523 34.7167 109.298 35.0527 109.298 35.4694C109.298 36.0067 109.657 36.3294 110.374 36.3294V36.33ZM114.984 33.9647C114.984 31.384 116.698 30.322 118.425 30.322C119.634 30.322 121.268 30.8194 121.52 33.0774H119.979C119.806 32.1367 119.195 31.7734 118.411 31.7734C117.228 31.7734 116.577 32.6467 116.577 33.964C116.577 35.2814 117.228 36.128 118.411 36.128C119.221 36.128 119.806 35.738 119.979 34.8107H121.52C121.307 37.0554 119.647 37.5794 118.425 37.5794C116.698 37.5794 114.984 36.5447 114.984 33.964V33.9647ZM122.371 33.938C122.371 31.3574 123.951 30.3227 125.759 30.3227C127.566 30.3227 129 31.3174 129 33.8707C129 34.1127 128.987 34.2474 128.96 34.3947H123.979C124.085 35.6987 124.736 36.2627 125.825 36.2627C126.688 36.2627 127.194 35.9267 127.393 35.2547H128.907C128.535 36.8407 127.326 37.58 125.785 37.58C123.992 37.58 122.371 36.5454 122.371 33.9374V33.938ZM127.392 33.3467C127.353 32.3654 126.847 31.64 125.731 31.64C124.735 31.64 124.11 32.2047 123.991 33.3467H127.392V33.3467Z" fill="#090909"/>
<path d="M38.868 11.0127L28.5619 0.702667C28.1121 0.252667 27.502 0 26.8656 0H12.2905C11.654 0 11.044 0.252667 10.5942 0.702667L0.292668 11.0087C-0.0746791 11.376 -0.0971024 11.958 0.227376 12.3507C0.247821 12.376 0.269585 12.4 0.292668 12.4233L6.27969 18.4127C7.081 19.3193 7.08034 20.686 6.27705 21.5913L0.292668 27.5773C0.269585 27.6 0.24848 27.6233 0.228695 27.648C-0.0971024 28.0413 -0.0753386 28.6247 0.292668 28.992L10.5942 39.2973C11.044 39.7473 11.654 40 12.2905 40H26.8656C27.502 40 28.1121 39.7473 28.5619 39.2973L38.868 28.9873C39.3178 28.5373 39.5704 27.9267 39.5704 27.2907V12.7093C39.5704 12.0727 39.3178 11.4627 38.868 11.0127ZM27.8595 37.1027C27.8595 38.172 26.5675 38.7073 25.8117 37.9513L11.2972 23.4307L9.56405 21.6967C8.62689 20.7593 8.62689 19.24 9.56405 18.302L25.8117 2.04867C26.5675 1.29267 27.8595 1.828 27.8595 2.89733V37.1027V37.1027Z" fill="#2C44DA"/>
</g>
<defs>
<clipPath id="clip0_1_12">
<rect width="129" height="40" fill="white"/>
</clipPath>
</defs>
</svg>
