<svg width="800" height="800" viewBox="0 0 800 800" fill="none" xmlns="http://www.w3.org/2000/svg">
<path d="M727.22 326.974H472.842V72.841C472.842 32.6146 440.381 4.29535e-06 400.15 4.29535e-06C359.918 4.29535e-06 327.475 32.6146 327.475 72.8586V327.15H72.9739C32.7421 327.15 0.0351407 359.765 0.052763 400.009C0.0351407 420.113 8.15903 438.544 21.3229 451.706C34.5044 464.903 52.6906 473.237 72.78 473.237H327.475V727.177C327.475 747.299 335.458 765.518 348.64 778.662C361.821 791.842 379.954 800 400.079 800C440.293 800 472.842 767.385 472.842 727.177V473.22H727.22C767.451 473.22 800.07 440.323 800.053 400.097C800.035 359.888 767.416 326.974 727.22 326.974Z" fill="#363636"/>
</svg>
